<svg width="60" height="60" viewBox="0 0 60 60" fill="none" xmlns="http://www.w3.org/2000/svg">
<rect width="60" height="60" rx="5" fill="#FAFAFA"/>
<path d="M43.214 38.717C42.7149 39.8699 42.1242 40.9312 41.4398 41.9069C40.5068 43.2371 39.743 44.1578 39.1543 44.6691C38.2417 45.5083 37.264 45.9381 36.217 45.9625C35.4653 45.9625 34.5589 45.7487 33.5037 45.3148C32.4451 44.8829 31.4723 44.6691 30.5827 44.6691C29.6498 44.6691 28.6492 44.8829 27.579 45.3148C26.5071 45.7487 25.6437 45.9748 24.9835 45.9972C23.9794 46.0399 22.9787 45.5979 21.9797 44.6691C21.3422 44.113 20.5447 43.1597 19.5894 41.8091C18.5643 40.367 17.7217 38.6946 17.0615 36.788C16.3544 34.7286 16 32.7344 16 30.8038C16 28.5922 16.4779 26.6848 17.435 25.0864C18.1873 23.8025 19.1881 22.7897 20.4406 22.0462C21.6931 21.3027 23.0465 20.9238 24.504 20.8996C25.3014 20.8996 26.3472 21.1463 27.6468 21.6311C28.9427 22.1175 29.7748 22.3642 30.1397 22.3642C30.4124 22.3642 31.3368 22.0757 32.9038 21.5007C34.3857 20.9674 35.6364 20.7466 36.661 20.8336C39.4374 21.0577 41.5233 22.1521 42.9105 24.1239C40.4274 25.6284 39.1991 27.7357 39.2236 30.439C39.246 32.5446 40.0098 34.2968 41.5111 35.688C42.1914 36.3338 42.9512 36.8328 43.7966 37.1873C43.6132 37.7189 43.4197 38.2281 43.214 38.717ZM36.8464 13.6602C36.8464 15.3106 36.2435 16.8515 35.0416 18.2778C33.5913 19.9734 31.8371 20.9532 29.9347 20.7986C29.9105 20.6006 29.8964 20.3922 29.8964 20.1732C29.8964 18.5889 30.5862 16.8933 31.811 15.5069C32.4225 14.805 33.2002 14.2213 34.1433 13.7557C35.0844 13.2971 35.9746 13.0434 36.8118 13C36.8362 13.2206 36.8464 13.4413 36.8464 13.6602V13.6602Z" fill="black"/>
</svg>
