<svg width="20" height="18" viewBox="0 0 20 18" fill="none" xmlns="http://www.w3.org/2000/svg">
<path d="M17.7275 3.90912H1.72746C1.32579 3.90912 1.00018 4.23473 1.00018 4.63639V16.2728C1.00018 16.6744 1.32579 17 1.72746 17H17.7275C18.1291 17 18.4547 16.6744 18.4547 16.2728V4.63639C18.4547 4.23473 18.1291 3.90912 17.7275 3.90912Z" stroke="#0154D4" stroke-width="1.5" stroke-linecap="round" stroke-linejoin="round"/>
<path d="M13.3631 3.90909V2.45455C13.3631 2.06878 13.2098 1.69881 12.9371 1.42603C12.6643 1.15325 12.2943 1 11.9085 1H7.54491C7.15914 1 6.78917 1.15325 6.51639 1.42603C6.24361 1.69881 6.09036 2.06878 6.09036 2.45455V3.90909" stroke="#0154D4" stroke-width="1.5" stroke-linecap="round" stroke-linejoin="round"/>
<path d="M18.4547 8.84625C15.8022 10.3808 12.7911 11.1866 9.72668 11.1818C6.66281 11.1866 3.65215 10.3811 1 8.84702" stroke="#0154D4" stroke-width="1.5" stroke-linecap="round" stroke-linejoin="round"/>
<path d="M8.63583 8.27271H10.8177" stroke="#0154D4" stroke-width="1.5" stroke-linecap="round" stroke-linejoin="round"/>
</svg>
