<svg width="21" height="18" viewBox="0 0 21 18" fill="none" xmlns="http://www.w3.org/2000/svg">
<path d="M13 7.40002H17" stroke="#0154D4" stroke-width="1.5" stroke-linecap="round" stroke-linejoin="round"/>
<path d="M13 10.6H17" stroke="#0154D4" stroke-width="1.5" stroke-linecap="round" stroke-linejoin="round"/>
<path d="M7.00995 10.6C8.33544 10.6 9.40996 9.52547 9.40996 8.19999C9.40996 6.8745 8.33544 5.79999 7.00995 5.79999C5.68447 5.79999 4.60995 6.8745 4.60995 8.19999C4.60995 9.52547 5.68447 10.6 7.00995 10.6Z" stroke="#0154D4" stroke-width="1.5" stroke-linecap="round" stroke-linejoin="round"/>
<path d="M3.91095 12.9999C4.0885 12.313 4.48924 11.7046 5.05019 11.2701C5.61114 10.8357 6.30052 10.6 7.01001 10.6C7.7195 10.6 8.4089 10.8356 8.96988 11.27C9.53086 11.7044 9.93164 12.3128 10.1092 12.9997" stroke="#0154D4" stroke-width="1.5" stroke-linecap="round" stroke-linejoin="round"/>
<path d="M19.4 1H1.8C1.35817 1 1 1.35817 1 1.8V16.2C1 16.6418 1.35817 17 1.8 17H19.4C19.8418 17 20.2 16.6418 20.2 16.2V1.8C20.2 1.35817 19.8418 1 19.4 1Z" stroke="#0154D4" stroke-width="1.5" stroke-linecap="round" stroke-linejoin="round"/>
</svg>
