<svg width="40" height="40" viewBox="0 0 40 40" fill="none" xmlns="http://www.w3.org/2000/svg">
<circle cx="20" cy="20" r="20" fill="black"/>
<path d="M19.8047 10C17.1422 10 16.808 10.0116 15.7623 10.0592C14.7185 10.107 14.0061 10.2723 13.3828 10.5147C12.7379 10.7651 12.191 11.1001 11.646 11.6452C11.1007 12.1902 10.7657 12.7371 10.5145 13.3817C10.2714 14.0053 10.106 14.7179 10.059 15.7612C10.0123 16.807 10 17.1413 10 19.8039C10 22.4665 10.0118 22.7996 10.0592 23.8454C10.1072 24.8891 10.2725 25.6015 10.5147 26.2249C10.7653 26.8697 11.1003 27.4167 11.6454 27.9616C12.1902 28.5069 12.7371 28.8427 13.3815 29.0931C14.0053 29.3356 14.7179 29.5008 15.7614 29.5486C16.8072 29.5962 17.1411 29.6078 19.8035 29.6078C22.4663 29.6078 22.7994 29.5962 23.8452 29.5486C24.8889 29.5008 25.6021 29.3356 26.2259 29.0931C26.8705 28.8427 27.4167 28.5069 27.9614 27.9616C28.5067 27.4167 28.8417 26.8697 29.0929 26.2251C29.3339 25.6015 29.4994 24.8889 29.5484 23.8456C29.5954 22.7998 29.6076 22.4665 29.6076 19.8039C29.6076 17.1413 29.5954 16.8072 29.5484 15.7614C29.4994 14.7177 29.3339 14.0053 29.0929 13.3819C28.8417 12.7371 28.5067 12.1902 27.9614 11.6452C27.4161 11.0999 26.8707 10.7649 26.2253 10.5147C25.6003 10.2723 24.8875 10.107 23.8438 10.0592C22.798 10.0116 22.4651 10 19.8017 10H19.8047ZM18.9252 11.7667C19.1863 11.7663 19.4775 11.7667 19.8047 11.7667C22.4224 11.7667 22.7326 11.7761 23.7663 11.8231C24.7222 11.8668 25.241 12.0266 25.5866 12.1607C26.0441 12.3384 26.3703 12.5509 26.7132 12.894C27.0564 13.2371 27.2688 13.5639 27.4469 14.0214C27.5811 14.3666 27.741 14.8854 27.7845 15.8413C27.8315 16.8748 27.8417 17.1853 27.8417 19.8017C27.8417 22.4181 27.8315 22.7286 27.7845 23.7621C27.7408 24.7179 27.5811 25.2367 27.4469 25.5819C27.2692 26.0394 27.0564 26.3652 26.7132 26.7081C26.3701 27.0513 26.0443 27.2637 25.5866 27.4414C25.2414 27.5762 24.7222 27.7355 23.7663 27.7792C22.7328 27.8262 22.4224 27.8364 19.8047 27.8364C17.1869 27.8364 16.8766 27.8262 15.8431 27.7792C14.8873 27.7351 14.3685 27.5754 14.0227 27.4412C13.5652 27.2635 13.2384 27.0511 12.8952 26.7079C12.5521 26.3648 12.3397 26.0388 12.1616 25.5811C12.0274 25.2359 11.8674 24.7171 11.8239 23.7612C11.777 22.7277 11.7676 22.4173 11.7676 19.7992C11.7676 17.1812 11.777 16.8723 11.8239 15.8388C11.8676 14.883 12.0274 14.3642 12.1616 14.0186C12.3393 13.5611 12.5521 13.2343 12.8952 12.8911C13.2384 12.548 13.5652 12.3356 14.0227 12.1575C14.3683 12.0227 14.8873 11.8634 15.8431 11.8194C16.7475 11.7786 17.098 11.7663 18.9252 11.7643V11.7667ZM25.038 13.3946C24.3885 13.3946 23.8615 13.921 23.8615 14.5707C23.8615 15.2202 24.3885 15.7471 25.038 15.7471C25.6875 15.7471 26.2145 15.2202 26.2145 14.5707C26.2145 13.9212 25.6875 13.3942 25.038 13.3942V13.3946ZM19.8047 14.7692C17.0243 14.7692 14.77 17.0235 14.77 19.8039C14.77 22.5844 17.0243 24.8376 19.8047 24.8376C22.5852 24.8376 24.8386 22.5844 24.8386 19.8039C24.8386 17.0235 22.585 14.7692 19.8045 14.7692H19.8047ZM19.8047 16.5359C21.6095 16.5359 23.0727 17.999 23.0727 19.8039C23.0727 21.6087 21.6095 23.0719 19.8047 23.0719C17.9998 23.0719 16.5368 21.6087 16.5368 19.8039C16.5368 17.999 17.9998 16.5359 19.8047 16.5359Z" fill="white"/>
</svg>
