<svg width="209" height="50" viewBox="0 0 209 50" fill="none" xmlns="http://www.w3.org/2000/svg">
<path d="M48.939 26.8809C48.4839 24.6032 46.132 22.2116 46.0182 20.7311C45.9803 19.9718 46.5113 19.1366 46.4734 18.0357C46.4355 17.4283 46.5113 15.796 45.9423 13.4423C47.0424 12.7969 47.9528 11.5062 48.2183 10.7849C49.0908 8.54515 47.839 6.15353 43.7043 3.64801C40.5938 1.78786 28.6828 -3.14724 24.3585 2.96469C29.5174 3.87579 34.2969 5.73594 36.3074 7.82387C37.2557 8.77293 37.3316 10.3294 36.535 12.1516C36.535 12.1516 36.4591 10.3673 35.6625 9.64606C35.6625 9.64606 36.535 12.1516 35.6625 13.4423C35.7004 13.4043 35.7004 13.0247 35.2452 12.1516C35.2452 12.1516 35.0176 13.8599 34.221 14.2015C34.7521 15.3784 34.9797 16.2895 34.9797 16.7071C35.0176 18.0357 34.4866 19.5922 34.4866 20.1616C34.4866 20.9588 34.4486 22.4773 35.5108 23.6542C36.3832 24.6412 37.8626 25.2865 37.8626 26.0458C37.8626 27.6402 35.397 27.5643 35.4728 28.3994C35.5108 28.7791 35.6246 29.0828 36.2694 29.6902C36.497 29.88 36.3453 30.2976 36.1556 30.5633C35.7763 31.1327 34.828 31.4744 34.828 31.4744C34.828 31.4744 35.7384 32.3855 35.4349 32.9549C35.1694 33.4864 33.9555 33.1068 34.3728 35.4225C35.2452 40.0539 27.0517 38.3835 25.5344 38.0419C25.6482 38.0798 25.7999 38.1178 26.0275 38.1937C23.8653 37.5863 22.9929 41.0788 22.6515 43.964L37.2557 50C38.8489 47.1528 36.0798 43.2047 35.5108 40.965C35.2452 39.902 35.4728 38.5354 39.3041 38.6493C42.6042 38.7252 44.1216 39.6363 45.563 37.7002C46.2079 36.865 45.7147 36.2197 45.563 35.3465C45.3354 33.6382 46.2837 33.904 46.2837 33.3345C46.2837 32.7651 45.7147 32.5753 45.7147 32.5753L46.4734 31.854C46.701 31.6642 46.7769 31.2846 46.6251 31.0188L46.3217 30.1457C46.2079 29.88 46.5493 29.1966 46.8527 29.1966C46.8527 29.1966 47.3838 29.0448 47.5735 29.0448C48.9391 28.855 49.1287 27.868 48.939 26.8809Z" fill="#0154D4"/>
<path d="M19.8444 34.9669C17.796 28.893 8.76799 16.3654 15.5959 6.95074C19.2375 1.90175 24.3205 2.96469 24.3205 2.96469C21.2859 2.43322 18.1374 2.20545 15.3304 2.43322C8.80592 3.04062 3.00218 7.82387 3.76084 21.6042C3.98844 26.0458 -3.02917 31.816 1.56072 37.7002C3.60911 40.3576 7.5162 39.7881 10.5508 39.5604C10.8543 39.5224 11.1578 39.4844 11.4612 39.4465C12.144 39.6742 16.5443 41.3066 16.5443 41.3066C16.5443 41.3066 19.7306 35.5364 19.8444 34.9669Z" fill="#0154D4"/>
<path d="M85.497 20.0015C85.497 24.6108 82.0115 27.6007 76.5344 27.6007H72.8622L71.9286 32.3346H66.7627L70.3726 14.1465H78.0904C82.8206 14.1465 85.497 16.2642 85.497 20.0015ZM80.2688 20.4375C80.2688 18.8803 79.2107 18.1952 77.4058 18.1952H74.7294L73.6714 23.5519H76.7211C78.9618 23.4897 80.2688 22.4308 80.2688 20.4375Z" fill="black"/>
<path d="M101.057 26.4795H90.7251C90.9118 28.0367 91.9699 28.7841 93.8994 28.7841C95.1442 28.7841 96.389 28.4104 97.3226 27.663L99.3765 30.7774C97.6338 32.0854 95.5176 32.5837 93.4014 32.5837C88.8579 32.5837 85.9326 30.0922 85.9326 26.168C85.9326 21.4964 89.4181 18.0083 94.4595 18.0083C98.7541 18.0083 101.368 20.4998 101.368 24.1748C101.306 25.0469 101.181 25.7943 101.057 26.4795ZM90.9741 23.9257H96.7624C96.7624 22.4308 95.7043 21.5587 94.1483 21.5587C92.4678 21.4964 91.472 22.4931 90.9741 23.9257Z" fill="black"/>
<path d="M102.426 26.168C102.426 21.4964 106.036 18.0083 111.078 18.0083C115.559 18.0083 118.484 20.4998 118.484 24.424C118.484 29.0956 114.874 32.5837 109.833 32.5837C105.289 32.5837 102.426 30.0299 102.426 26.168ZM113.443 24.6731C113.443 23.0536 112.509 21.9947 110.766 21.9947C108.775 21.9947 107.405 23.5519 107.405 25.9189C107.405 27.5384 108.339 28.5973 110.082 28.5973C112.073 28.5973 113.443 26.9778 113.443 24.6731Z" fill="black"/>
<path d="M136.471 24.424C136.471 29.1579 133.048 32.5837 128.816 32.5837C126.949 32.5837 125.393 32.0231 124.521 30.6528L123.152 37.3799H118.235L122.032 18.2575H126.7L126.389 19.5655C127.509 18.5689 128.816 18.0083 130.496 18.0083C133.546 18.0083 136.471 20.313 136.471 24.424ZM131.492 24.6731C131.492 23.0536 130.496 21.9947 128.816 21.9947C126.887 21.9947 125.455 23.5519 125.455 25.9189C125.455 27.5384 126.451 28.5973 128.131 28.5973C130.061 28.5973 131.492 26.9778 131.492 24.6731Z" fill="black"/>
<path d="M141.14 13.0253H146.056L142.198 32.3346H137.281L141.14 13.0253Z" fill="black"/>
<path d="M161.119 26.4795H150.787C150.973 28.0367 152.032 28.7841 153.961 28.7841C155.206 28.7841 156.451 28.4104 157.384 27.663L159.438 30.7774C157.695 32.0854 155.579 32.5837 153.463 32.5837C148.92 32.5837 145.994 30.0922 145.994 26.168C145.994 21.4964 149.48 18.0083 154.521 18.0083C158.816 18.0083 161.43 20.4998 161.43 24.1748C161.368 25.0469 161.243 25.7943 161.119 26.4795ZM151.036 23.9257H156.824C156.824 22.4308 155.766 21.5587 154.21 21.5587C152.529 21.4964 151.471 22.4931 151.036 23.9257Z" fill="black"/>
<path d="M180.973 20.0015C180.973 24.6108 177.488 27.6007 172.011 27.6007H168.401L167.467 32.3346H162.301L165.911 14.1465H173.629C178.297 14.1465 180.973 16.2642 180.973 20.0015ZM175.745 20.4375C175.745 18.8803 174.687 18.1952 172.882 18.1952H170.206L169.147 23.5519H172.197C174.5 23.4897 175.745 22.4308 175.745 20.4375Z" fill="black"/>
<path d="M193.297 18.0083L192.425 22.4308C191.99 22.3685 191.678 22.3685 191.305 22.3685C189.127 22.3685 187.757 23.3028 187.322 25.6697L185.952 32.3346H181.035L183.836 18.2575H188.504L188.193 19.8147C189.438 18.5066 191.18 18.0083 193.297 18.0083Z" fill="black"/>
<path d="M192.799 26.168C192.799 21.4964 196.409 18.0083 201.45 18.0083C205.931 18.0083 208.857 20.4998 208.857 24.424C208.857 29.0956 205.247 32.5837 200.205 32.5837C195.724 32.5837 192.799 30.0299 192.799 26.168ZM203.815 24.6731C203.815 23.0536 202.882 21.9947 201.139 21.9947C199.147 21.9947 197.778 23.5519 197.778 25.9189C197.778 27.5384 198.711 28.5973 200.454 28.5973C202.446 28.5973 203.815 26.9778 203.815 24.6731Z" fill="black"/>
</svg>
