<svg width="60" height="60" viewBox="0 0 60 60" fill="none" xmlns="http://www.w3.org/2000/svg">
<rect width="60" height="60" rx="5" fill="#FAFAFA"/>
<path fill-rule="evenodd" clip-rule="evenodd" d="M14.6669 13C13.7462 13 13 13.985 13 15.1997V43.8C13 45.015 13.7462 46 14.6669 46H44.333C45.2536 46 46 45.015 46 43.8V15.1997C46 13.985 45.2536 13 44.333 13H14.6669Z" fill="#D52B1E"/>
<path fill-rule="evenodd" clip-rule="evenodd" d="M29.4663 27.7393C29.9153 24.419 31.3955 18.4305 34.2185 18.4305C37.5142 18.4305 41.3866 29.5012 41.3856 38.6666H38.3464C38.3464 29.0535 35.9918 20.3918 34.2975 20.3914C32.5302 20.3913 30.9814 26.2832 30.9814 37.5087H27.9463C27.9463 26.2832 26.4068 20.3914 24.63 20.3914C22.9389 20.3914 20.5859 29.0551 20.5859 38.6666H17.5467C17.5496 29.4933 21.4121 18.4294 24.7137 18.4305C27.5329 18.4315 29.0136 24.4183 29.4663 27.7393Z" fill="#FDC82F"/>
<path fill-rule="evenodd" clip-rule="evenodd" d="M42.4034 37.8851H42.5423C42.6589 37.8851 42.7658 37.8794 42.7658 37.7437C42.7658 37.6297 42.6687 37.6124 42.5785 37.6124H42.4034V37.8851ZM42.2706 37.5046H42.6006C42.8032 37.5046 42.8984 37.585 42.8984 37.7493C42.8984 37.9047 42.8011 37.9693 42.6749 37.9828L42.918 38.3613H42.7757L42.544 37.9929H42.4034V38.3613H42.2706V37.5046ZM42.5556 38.5593C42.8922 38.5593 43.154 38.2888 43.154 37.9304C43.154 37.5787 42.8922 37.3083 42.5556 37.3083C42.2141 37.3083 41.9535 37.5787 41.9535 37.9304C41.9535 38.2888 42.2141 38.5593 42.5556 38.5593ZM42.5556 37.2004C42.9534 37.2004 43.2867 37.5159 43.2867 37.9304C43.2867 38.3511 42.9534 38.6668 42.5555 38.6668C42.1558 38.6668 41.82 38.3511 41.82 37.9304C41.82 37.5159 42.1558 37.2004 42.5555 37.2004H42.5556Z" fill="#FDC82F"/>
</svg>
