<svg width="60" height="60" viewBox="0 0 60 60" fill="none" xmlns="http://www.w3.org/2000/svg">
<rect width="60" height="60" rx="5" fill="#FAFAFA"/>
<rect x="13" y="13" width="33" height="33" rx="10" fill="#FE660B"/>
<path d="M33.5498 35.3102V26.9827C33.5498 25.0906 32.0164 23.5566 30.1245 23.5566H20.4958C20.4215 23.5566 20.3615 23.6164 20.3615 23.6899V35.3101C20.3615 35.3276 20.3651 35.345 20.3719 35.3612C20.3787 35.3774 20.3886 35.392 20.4011 35.4044C20.4136 35.4167 20.4283 35.4265 20.4446 35.4331C20.4608 35.4398 20.4782 35.4431 20.4958 35.4431H23.068C23.1035 35.4429 23.1375 35.4288 23.1626 35.4037C23.1877 35.3787 23.2019 35.3448 23.2021 35.3093V26.1888C23.2023 26.1533 23.2165 26.1193 23.2416 26.0942C23.2667 26.0691 23.3007 26.0549 23.3362 26.0547H28.8671C29.9056 26.0547 30.7479 26.8965 30.7479 27.9353V35.3089C30.7479 35.3824 30.8084 35.4428 30.8819 35.4428H33.416C33.4897 35.4428 33.5499 35.3831 33.5499 35.3097" fill="white"/>
<path d="M28.3559 35.3093V35.3096C28.3559 35.3828 28.2957 35.4433 28.2224 35.4433H25.6508C25.6332 35.4433 25.6157 35.4399 25.5994 35.4332C25.5831 35.4265 25.5683 35.4166 25.5558 35.4042C25.5433 35.3918 25.5334 35.377 25.5266 35.3607C25.5199 35.3444 25.5164 35.327 25.5164 35.3093V28.3204C25.5164 28.2468 25.5771 28.1862 25.6506 28.1862H28.2222C28.2956 28.1862 28.3559 28.2466 28.3559 28.3199V35.3096V35.3093ZM38.6383 35.3093C38.6383 35.3834 38.5783 35.4432 38.5039 35.4432H35.9331C35.8975 35.4433 35.8633 35.4293 35.838 35.4042C35.8127 35.3791 35.7984 35.345 35.7982 35.3093V23.6911C35.7982 23.6168 35.8589 23.5568 35.9331 23.5568H38.5041C38.5778 23.5568 38.6383 23.6174 38.6383 23.691V23.6911V35.3093Z" fill="white"/>
</svg>
