<svg width="188" height="46" viewBox="0 0 188 46" fill="none" xmlns="http://www.w3.org/2000/svg">
<path d="M44.0451 25.0471C43.6354 22.9971 41.5188 20.8447 41.4164 19.5122C41.3822 18.8289 41.8602 18.0772 41.826 17.0864C41.7919 16.5397 41.8602 15.0706 41.3481 12.9523C42.3381 12.3715 43.1575 11.2098 43.3965 10.5607C44.1817 8.54489 43.0551 6.39242 39.3338 4.13746C36.5344 2.46332 25.8145 -1.97827 21.9226 3.52247C26.5656 4.34246 30.8672 6.0166 32.6766 7.89573C33.5301 8.74988 33.5984 10.1507 32.8814 11.7907C32.8814 11.7907 32.8132 10.1849 32.0962 9.5357C32.0962 9.5357 32.8814 11.7907 32.0962 12.9523C32.1304 12.9181 32.1304 12.5765 31.7207 11.7907C31.7207 11.7907 31.5159 13.3281 30.7989 13.6356C31.2769 14.6948 31.4817 15.5148 31.4817 15.8906C31.5159 17.0864 31.0379 18.4872 31.0379 18.9997C31.0379 19.7172 31.0038 21.0838 31.9597 22.143C32.7449 23.0313 34.0763 23.6121 34.0763 24.2954C34.0763 25.7304 31.8573 25.6621 31.9255 26.4137C31.9597 26.7554 32.0621 27.0287 32.6425 27.5754C32.8473 27.7462 32.7107 28.122 32.5401 28.3612C32.1987 28.8737 31.3452 29.1812 31.3452 29.1812C31.3452 29.1812 32.1645 30.0012 31.8914 30.5137C31.6524 30.992 30.5599 30.6503 30.9355 32.7345C31.7207 36.9027 24.3465 35.3994 22.9809 35.0919C23.0834 35.1261 23.2199 35.1603 23.4248 35.2286C21.4788 34.6819 20.6936 37.8252 20.3863 40.4218L33.5301 45.8542C34.964 43.2918 32.4718 39.7385 31.9597 37.7227C31.7207 36.7661 31.9255 35.5361 35.3736 35.6386C38.3438 35.7069 39.7094 36.5269 41.0067 34.7844C41.5871 34.0328 41.1433 33.452 41.0067 32.6661C40.8019 31.1287 41.6553 31.3678 41.6553 30.8553C41.6553 30.3428 41.1433 30.172 41.1433 30.172L41.826 29.5229C42.0309 29.352 42.0992 29.0104 41.9626 28.7712L41.6895 27.9854C41.5871 27.7462 41.8943 27.1312 42.1674 27.1312C42.1674 27.1312 42.6454 26.9946 42.8161 26.9946C44.0451 26.8237 44.2158 25.9354 44.0451 25.0471Z" fill="#767676"/>
<path d="M17.86 32.3246C16.0164 26.858 7.89119 15.5832 14.0363 7.11001C17.3137 2.56592 21.8885 3.52257 21.8885 3.52257C19.1573 3.04424 16.3237 2.83925 13.7974 3.04424C7.92533 3.5909 2.70196 7.89582 3.38475 20.2981C3.58959 24.2955 -2.72625 29.4888 1.40465 34.7845C3.2482 37.1762 6.76458 36.6637 9.49576 36.4587C9.76888 36.4245 10.042 36.3903 10.3151 36.3562C10.9296 36.5612 14.8898 38.0303 14.8898 38.0303C14.8898 38.0303 17.7576 32.8371 17.86 32.3246Z" fill="#767676"/>
<path d="M76.9473 19.1324C76.9473 23.2807 73.8104 25.9716 68.8809 25.9716H65.576L64.7358 30.2321H60.0864L63.3354 13.8628H70.2813C74.5386 13.8628 76.9473 15.7688 76.9473 19.1324ZM72.2419 19.5248C72.2419 18.1233 71.2896 17.5066 69.6652 17.5066H67.2565L66.3042 22.3277H69.049C71.0656 22.2717 72.2419 21.3187 72.2419 19.5248Z" fill="#767676"/>
<path d="M90.9512 24.9629H81.6526C81.8206 26.3644 82.7729 27.0371 84.5094 27.0371C85.6297 27.0371 86.7501 26.7008 87.5903 26.0281L89.4388 28.831C87.8704 30.0083 85.9658 30.4567 84.0613 30.4567C79.9721 30.4567 77.3394 28.2144 77.3394 24.6826C77.3394 20.4782 80.4763 17.3389 85.0136 17.3389C88.8787 17.3389 91.2313 19.5812 91.2313 22.8887C91.1753 23.6736 91.0633 24.3463 90.9512 24.9629ZM81.8767 22.6645H87.0861C87.0861 21.3191 86.1339 20.5342 84.7335 20.5342C83.221 20.4782 82.3248 21.3751 81.8767 22.6645Z" fill="#767676"/>
<path d="M92.1836 24.6826C92.1836 20.4782 95.4325 17.3389 99.9698 17.3389C104.003 17.3389 106.636 19.5812 106.636 23.113C106.636 27.3174 103.387 30.4567 98.8495 30.4567C94.7603 30.4567 92.1836 28.1583 92.1836 24.6826ZM102.098 23.3372C102.098 21.8797 101.258 20.9267 99.6897 20.9267C97.8972 20.9267 96.6649 22.3281 96.6649 24.4584C96.6649 25.9159 97.5051 26.8689 99.0736 26.8689C100.866 26.8689 102.098 25.4114 102.098 23.3372Z" fill="#767676"/>
<path d="M122.824 23.113C122.824 27.3735 119.743 30.4567 115.934 30.4567C114.254 30.4567 112.853 29.9522 112.069 28.7189L110.837 34.7733H106.412L109.829 17.5631H114.03L113.75 18.7403C114.758 17.8434 115.934 17.3389 117.447 17.3389C120.192 17.3389 122.824 19.4131 122.824 23.113ZM118.343 23.3372C118.343 21.8797 117.447 20.9267 115.934 20.9267C114.198 20.9267 112.91 22.3281 112.91 24.4584C112.91 25.9159 113.806 26.8689 115.318 26.8689C117.055 26.8689 118.343 25.4114 118.343 23.3372Z" fill="#767676"/>
<path d="M127.026 12.8542H131.451L127.978 30.2326H123.553L127.026 12.8542Z" fill="#767676"/>
<path d="M145.007 24.9629H135.708C135.876 26.3644 136.828 27.0371 138.565 27.0371C139.685 27.0371 140.805 26.7008 141.646 26.0281L143.494 28.831C141.926 30.0083 140.021 30.4567 138.117 30.4567C134.028 30.4567 131.395 28.2144 131.395 24.6826C131.395 20.4782 134.532 17.3389 139.069 17.3389C142.934 17.3389 145.287 19.5812 145.287 22.8887C145.231 23.6736 145.119 24.3463 145.007 24.9629ZM135.932 22.6645H141.142C141.142 21.3191 140.189 20.5342 138.789 20.5342C137.276 20.4782 136.324 21.3751 135.932 22.6645Z" fill="#767676"/>
<path d="M162.876 19.1324C162.876 23.2807 159.739 25.9716 154.809 25.9716H151.561L150.72 30.2321H146.071L149.32 13.8628H156.266C160.467 13.8628 162.876 15.7688 162.876 19.1324ZM158.17 19.5248C158.17 18.1233 157.218 17.5066 155.594 17.5066H153.185L152.233 22.3277H154.977C157.05 22.2717 158.17 21.3187 158.17 19.5248Z" fill="#767676"/>
<path d="M173.967 17.3389L173.183 21.3191C172.791 21.263 172.51 21.263 172.174 21.263C170.214 21.263 168.981 22.1039 168.589 24.2342L167.357 30.2325H162.932L165.452 17.5631H169.654L169.374 18.9646C170.494 17.7873 172.062 17.3389 173.967 17.3389Z" fill="#767676"/>
<path d="M173.519 24.6826C173.519 20.4782 176.768 17.3389 181.305 17.3389C185.338 17.3389 187.971 19.5812 187.971 23.113C187.971 27.3174 184.722 30.4567 180.185 30.4567C176.151 30.4567 173.519 28.1583 173.519 24.6826ZM183.434 23.3372C183.434 21.8797 182.593 20.9267 181.025 20.9267C179.232 20.9267 178 22.3281 178 24.4584C178 25.9159 178.84 26.8689 180.409 26.8689C182.201 26.8689 183.434 25.4114 183.434 23.3372Z" fill="#767676"/>
</svg>
